<?xml version="1.0" ?><svg id="icon" viewBox="0 0 32 32" xmlns="http://www.w3.org/2000/svg" width= "24px" height="24px"><defs><style>.cls-1{fill:none;}</style></defs><title/><path stroke="#0d6efd" stroke-width="1" d="M12,4H6A2,2,0,0,0,4,6v6a2,2,0,0,0,2,2h6a2,2,0,0,0,2-2V6A2,2,0,0,0,12,4Zm0,8H6V6h6Z"/><path stroke="#0d6efd" stroke-width="1" d="M26,4H20a2,2,0,0,0-2,2v6a2,2,0,0,0,2,2h6a2,2,0,0,0,2-2V6A2,2,0,0,0,26,4Zm0,8H20V6h6Z"/><path stroke="#0d6efd" stroke-width="1" d="M12,18H6a2,2,0,0,0-2,2v6a2,2,0,0,0,2,2h6a2,2,0,0,0,2-2V20A2,2,0,0,0,12,18Zm0,8H6V20h6Z"/><path stroke="#0d6efd" stroke-width="1" d="M26,18H20a2,2,0,0,0-2,2v6a2,2,0,0,0,2,2h6a2,2,0,0,0,2-2V20A2,2,0,0,0,26,18Zm0,8H20V20h6Z"/><rect class="cls-1" data-name="&lt;Transparent Rectangle&gt;" height="32" id="_Transparent_Rectangle_" width="32"/></svg>